<svg width="200" height="200" viewBox="0 0 200 200" fill="none" xmlns="http://www.w3.org/2000/svg">
<circle cx="100" cy="100" r="100" fill="#A20011"/>
<path d="M69.4531 143.416C64.2611 143.416 59.2264 142.433 54.3491 140.466C49.5504 138.499 45.3024 135.707 41.6051 132.088L49.6291 122.766C52.3824 125.362 55.5291 127.486 59.0691 129.138C62.6091 130.711 66.1491 131.498 69.6891 131.498C74.0944 131.498 77.4378 130.593 79.7191 128.784C82.0004 126.975 83.1411 124.575 83.1411 121.586C83.1411 118.361 82.0004 116.04 79.7191 114.624C77.5164 113.208 74.6844 111.753 71.2231 110.258L60.6031 105.656C58.0858 104.555 55.6078 103.139 53.1691 101.408C50.8091 99.6773 48.8424 97.4747 47.2691 94.8C45.7744 92.1253 45.0271 88.9 45.0271 85.124C45.0271 81.0333 46.1284 77.3753 48.3311 74.15C50.6124 70.846 53.6804 68.25 57.5351 66.362C61.4684 64.3953 65.9524 63.412 70.9871 63.412C75.4711 63.412 79.7978 64.3167 83.9671 66.126C88.1364 67.8567 91.7158 70.2167 94.7051 73.206L87.7431 81.938C85.3044 79.8927 82.7084 78.28 79.9551 77.1C77.2804 75.92 74.2911 75.33 70.9871 75.33C67.3684 75.33 64.4184 76.156 62.1371 77.808C59.9344 79.3813 58.8331 81.584 58.8331 84.416C58.8331 86.3827 59.3838 88.0347 60.4851 89.372C61.6651 90.6307 63.1991 91.732 65.0871 92.676C66.9751 93.5413 68.9811 94.4067 71.1051 95.272L81.6071 99.638C86.1698 101.605 89.9064 104.201 92.8171 107.426C95.7278 110.573 97.1831 114.939 97.1831 120.524C97.1831 124.693 96.0818 128.509 93.8791 131.97C91.6764 135.431 88.4904 138.224 84.3211 140.348C80.2304 142.393 75.2744 143.416 69.4531 143.416ZM131.91 143.416C126.718 143.416 121.683 142.433 116.806 140.466C112.007 138.499 107.759 135.707 104.062 132.088L112.086 122.766C114.839 125.362 117.986 127.486 121.526 129.138C125.066 130.711 128.606 131.498 132.146 131.498C136.551 131.498 139.895 130.593 142.176 128.784C144.457 126.975 145.598 124.575 145.598 121.586C145.598 118.361 144.457 116.04 142.176 114.624C139.973 113.208 137.141 111.753 133.68 110.258L123.06 105.656C120.543 104.555 118.065 103.139 115.626 101.408C113.266 99.6773 111.299 97.4747 109.726 94.8C108.231 92.1253 107.484 88.9 107.484 85.124C107.484 81.0333 108.585 77.3753 110.788 74.15C113.069 70.846 116.137 68.25 119.992 66.362C123.925 64.3953 128.409 63.412 133.444 63.412C137.928 63.412 142.255 64.3167 146.424 66.126C150.593 67.8567 154.173 70.2167 157.162 73.206L150.2 81.938C147.761 79.8927 145.165 78.28 142.412 77.1C139.737 75.92 136.748 75.33 133.444 75.33C129.825 75.33 126.875 76.156 124.594 77.808C122.391 79.3813 121.29 81.584 121.29 84.416C121.29 86.3827 121.841 88.0347 122.942 89.372C124.122 90.6307 125.656 91.732 127.544 92.676C129.432 93.5413 131.438 94.4067 133.562 95.272L144.064 99.638C148.627 101.605 152.363 104.201 155.274 107.426C158.185 110.573 159.64 114.939 159.64 120.524C159.64 124.693 158.539 128.509 156.336 131.97C154.133 135.431 150.947 138.224 146.778 140.348C142.687 142.393 137.731 143.416 131.91 143.416Z" fill="white"/>
</svg>
